<?xml version="1.0" encoding="iso-8859-1"?>
<!-- Generator: Adobe Illustrator 19.0.0, SVG Export Plug-In . SVG Version: 6.00 Build 0)  -->
<svg version="1.1" id="Layer_1" xmlns="http://www.w3.org/2000/svg" xmlns:xlink="http://www.w3.org/1999/xlink" x="0px" y="0px"
	 viewBox="0 0 512 512" style="enable-background:new 0 0 512 512;" xml:space="preserve">
<g>
	<path style="fill:#35495E;" d="M406.069,485.862c0,14.433-11.705,26.138-26.138,26.138H149.725
		c-14.433,0-26.138-11.705-26.138-26.138V26.147C123.586,11.714,135.292,0,149.725,0H379.93c14.433,0,26.138,11.714,26.138,26.147
		V485.862z"/>
	<g>
		<path style="fill:#546B7F;" d="M114.759,97.107c-4.873,0-8.828-3.955-8.828-8.828v-8.828c0-4.873,3.955-8.828,8.828-8.828
			c4.873,0,8.828,3.955,8.828,8.828v8.828C123.586,93.152,119.631,97.107,114.759,97.107"/>
		<path style="fill:#546B7F;" d="M114.759,132.417c-4.873,0-8.828-3.955-8.828-8.828v-8.828c0-4.873,3.955-8.828,8.828-8.828
			c4.873,0,8.828,3.955,8.828,8.828v8.828C123.586,128.463,119.631,132.417,114.759,132.417"/>
		<path style="fill:#546B7F;" d="M114.759,167.728c-4.873,0-8.828-3.955-8.828-8.828v-8.828c0-4.873,3.955-8.828,8.828-8.828
			c4.873,0,8.828,3.955,8.828,8.828v8.828C123.586,163.773,119.631,167.728,114.759,167.728"/>
		<path style="fill:#546B7F;" d="M282.483,476.693c0,9.746-7.91,17.655-17.655,17.655c-9.746,0-17.655-7.91-17.655-17.655
			c0-9.746,7.91-17.655,17.655-17.655C274.573,459.038,282.483,466.948,282.483,476.693"/>
		<path style="fill:#546B7F;" d="M158.897,79.452c-2.26,0-4.52-0.865-6.241-2.586c-3.452-3.452-3.452-9.031,0-12.482l35.31-35.31
			c3.452-3.452,9.031-3.452,12.482,0c3.452,3.452,3.452,9.031,0,12.482l-35.31,35.31C163.416,78.587,161.156,79.452,158.897,79.452"
			/>
		<path style="fill:#546B7F;" d="M158.897,123.59c-2.26,0-4.52-0.865-6.241-2.586c-3.452-3.452-3.452-9.031,0-12.482l17.655-17.655
			c3.452-3.452,9.031-3.452,12.482,0s3.452,9.031,0,12.482l-17.655,17.655C163.416,122.725,161.156,123.59,158.897,123.59"/>
		<path style="fill:#546B7F;" d="M194.207,88.279c-2.295,0-4.59-0.971-6.268-2.56c-0.353-0.441-0.706-0.883-1.059-1.324
			c-0.353-0.53-0.618-1.059-0.794-1.589c-0.265-0.53-0.441-1.059-0.53-1.589c-0.088-0.618-0.177-1.148-0.177-1.766
			c0-1.148,0.265-2.295,0.706-3.354c0.441-1.148,1.059-2.03,1.854-2.913c2.472-2.472,6.356-3.178,9.622-1.854
			c1.059,0.441,2.03,1.059,2.913,1.854c0.794,0.883,1.412,1.766,1.854,2.913c0.441,1.059,0.706,2.207,0.706,3.354
			c0,0.618-0.088,1.148-0.177,1.766c-0.088,0.53-0.265,1.059-0.53,1.589c-0.177,0.53-0.441,1.059-0.794,1.589
			c-0.353,0.441-0.706,0.883-1.059,1.324c-0.883,0.794-1.854,1.412-2.913,1.854C196.502,88.015,195.354,88.279,194.207,88.279"/>
		<path style="fill:#546B7F;" d="M211.862,70.624c-2.26,0-4.52-0.865-6.241-2.586c-3.452-3.452-3.452-9.031,0-12.482l26.483-26.483
			c3.452-3.452,9.031-3.452,12.482,0c3.452,3.452,3.452,9.031,0,12.482l-26.483,26.483
			C216.382,69.759,214.122,70.624,211.862,70.624"/>
		<path style="fill:#546B7F;" d="M158.897,167.728c-2.26,0-4.52-0.865-6.241-2.586c-3.452-3.452-3.452-9.031,0-12.482l79.448-79.448
			c3.452-3.452,9.031-3.452,12.482,0c3.452,3.452,3.452,9.031,0,12.482l-79.448,79.448
			C163.416,166.863,161.156,167.728,158.897,167.728"/>
		<path style="fill:#546B7F;" d="M256,70.624c-1.148,0-2.295-0.177-3.354-0.706c-1.059-0.441-2.03-1.059-2.913-1.854
			c-1.589-1.677-2.56-3.972-2.56-6.268c0-1.148,0.265-2.295,0.706-3.354c0.441-1.148,1.059-2.03,1.854-2.913
			c0.883-0.794,1.854-1.412,2.913-1.854c3.266-1.412,7.15-0.618,9.622,1.854c0.794,0.883,1.412,1.766,1.854,2.913
			c0.441,1.059,0.706,2.207,0.706,3.354s-0.265,2.295-0.706,3.354c-0.441,1.059-1.059,2.03-1.854,2.913
			C260.59,69.653,258.295,70.624,256,70.624"/>
		<path style="fill:#546B7F;" d="M273.655,52.969c-2.26,0-4.52-0.865-6.241-2.586c-3.452-3.452-3.452-9.031,0-12.482l8.828-8.828
			c3.452-3.452,9.031-3.452,12.482,0c3.452,3.452,3.452,9.031,0,12.482l-8.828,8.828C278.175,52.104,275.915,52.969,273.655,52.969"
			/>
	</g>
</g>
<g>
</g>
<g>
</g>
<g>
</g>
<g>
</g>
<g>
</g>
<g>
</g>
<g>
</g>
<g>
</g>
<g>
</g>
<g>
</g>
<g>
</g>
<g>
</g>
<g>
</g>
<g>
</g>
<g>
</g>
</svg>
